<svg height="238" node-id="1" sillyvg="true" template-height="238" template-width="256" version="1.1" viewBox="0 0 256 238" width="256" xmlns="http://www.w3.org/2000/svg" xmlns:xlink="http://www.w3.org/1999/xlink"><defs node-id="342"></defs><g node-id="471"><g node-id="473"><g node-id="491"><g node-id="492"><path d="M 250.18 125.01 C 250.18 86.72 219.07 55.69 180.69 55.69 C 180.10 55.69 179.51 55.72 178.92 55.73 C 166.80 35.42 144.58 21.80 119.17 21.80 C 80.79 21.80 49.67 52.84 49.67 91.13 C 49.67 91.63 49.70 92.11 49.72 92.61 C 49.72 113.34 14.56 127.05 14.56 152.87 C 14.56 191.16 45.67 222.19 84.05 222.19 C 86.23 222.19 88.39 222.08 90.52 221.88 C 118.67 221.88 122.55 234.21 144.14 234.21 C 179.62 234.21 208.85 220.58 213.08 186.34 C 222.85 162.44 250.18 151.63 250.18 125.01 Z" fill="#bddbff" fill-opacity="0.39" fill-rule="nonzero" group-id="1,3,21,22" node-id="348" stroke="none" target-height="212.40701" target-width="235.62401" target-x="14.56" target-y="21.803"/></g></g></g><g node-id="474"><path d="M 224.14 56.96 C 224.14 56.90 224.15 56.83 224.15 56.77 C 224.15 49.94 218.13 44.41 210.70 44.41 C 204.31 44.41 198.96 48.51 197.59 54.01 C 197.38 53.99 197.17 53.98 196.96 53.98 C 192.54 53.98 188.96 57.27 188.96 61.33 C 188.96 62.20 189.12 63.04 189.43 63.81 C 188.19 65.42 187.46 67.39 187.46 69.51 C 187.46 74.89 192.14 79.27 197.97 79.38 L 197.97 79.39 L 218.63 79.39 C 225.71 79.39 231.45 74.11 231.45 67.60 C 231.45 62.91 228.46 58.86 224.14 56.96 Z" fill="#ffffff" fill-rule="nonzero" group-id="1,4" node-id="355" stroke="none" target-height="34.978" target-width="43.994003" target-x="187.457" target-y="44.41"/><path d="M 218.63 80.89 L 197.97 80.89 C 197.91 80.89 197.87 80.89 197.82 80.88 C 191.27 80.69 185.96 75.61 185.96 69.51 C 185.96 67.39 186.58 65.35 187.76 63.56 C 187.56 62.84 187.46 62.09 187.46 61.33 C 187.46 56.60 191.46 52.73 196.48 52.49 C 198.45 46.79 204.13 42.91 210.70 42.91 C 218.67 42.91 225.20 48.72 225.63 56.01 C 230.10 58.34 232.95 62.80 232.95 67.60 C 232.95 74.93 226.53 80.89 218.63 80.89 Z M 198.07 77.89 L 218.63 77.89 C 224.87 77.89 229.95 73.27 229.95 67.60 C 229.95 63.68 227.43 60.04 223.54 58.33 C 222.99 58.09 222.64 57.56 222.64 56.96 C 222.64 56.94 222.65 56.82 222.65 56.80 C 222.65 50.78 217.29 45.91 210.70 45.91 C 205.16 45.91 200.26 49.47 199.05 54.37 C 198.87 55.08 198.22 55.57 197.48 55.50 C 197.31 55.49 197.13 55.48 196.96 55.48 C 193.37 55.48 190.46 58.11 190.46 61.33 C 190.46 61.99 190.58 62.64 190.82 63.27 C 191.01 63.76 190.94 64.31 190.62 64.72 C 189.53 66.14 188.96 67.79 188.96 69.51 C 188.96 74.03 193.01 77.78 198.00 77.88 C 198.02 77.89 198.05 77.89 198.07 77.89 Z" fill="#ccccde" fill-rule="nonzero" group-id="1,4" node-id="357" stroke="none" target-height="37.978" target-width="46.994995" target-x="185.957" target-y="42.91"/></g><g node-id="475"><path d="M 27.22 30.39 L 39.05 30.39 L 39.05 33.40 L 27.22 33.40 Z" fill="#ad7f7f" fill-opacity="0.43" fill-rule="nonzero" group-id="1,5" node-id="362" stroke="none" target-height="3" target-width="11.827" target-x="27.223" target-y="30.395"/><path d="M 31.64 26.17 L 34.64 26.17 L 34.64 41.32 L 31.64 41.32 Z" fill="#ad7f7f" fill-opacity="0.43" fill-rule="nonzero" group-id="1,5" node-id="364" stroke="none" target-height="15.152" target-width="3.000002" target-x="31.637" target-y="26.167"/></g><g node-id="476"><path d="M 207.83 14.41 L 219.66 14.41 L 219.66 17.41 L 207.83 17.41 Z" fill="#5fc2ff" fill-opacity="0.43" fill-rule="nonzero" group-id="1,6" node-id="369" stroke="none" target-height="3" target-width="11.826004" target-x="207.832" target-y="14.413"/><path d="M 212.25 10.19 L 215.25 10.19 L 215.25 25.34 L 212.25 25.34 Z" fill="#5fc2ff" fill-opacity="0.43" fill-rule="nonzero" group-id="1,6" node-id="371" stroke="none" target-height="15.151999" target-width="3" target-x="212.245" target-y="10.186"/></g><g node-id="477"><path d="M 59.16 137.31 C 55.35 137.31 52.26 134.21 52.26 130.41 C 52.26 126.60 55.35 123.50 59.16 123.50 C 62.97 123.50 66.06 126.60 66.06 130.41 C 66.06 134.21 62.97 137.31 59.16 137.31 Z M 59.16 126.50 C 57.01 126.50 55.26 128.25 55.26 130.40 C 55.26 132.55 57.01 134.30 59.16 134.30 C 61.31 134.30 63.06 132.55 63.06 130.40 C 63.06 128.25 61.31 126.50 59.16 126.50 Z" fill="#ff9fcc" fill-opacity="0.38" fill-rule="nonzero" group-id="1,7" node-id="376" stroke="none" target-height="13.800995" target-width="13.801998" target-x="52.259" target-y="123.504"/></g><g node-id="478"><path d="M 55.76 182.62 L 63.15 182.62 L 63.15 185.62 L 55.76 185.62 Z" fill="#ad7f7f" fill-opacity="0.43" fill-rule="nonzero" group-id="1,8" node-id="381" stroke="none" target-height="3" target-width="7.3899994" target-x="55.759" target-y="182.623"/><path d="M 57.95 180.54 L 60.95 180.54 L 60.95 190.01 L 57.95 190.01 Z" fill="#ad7f7f" fill-opacity="0.43" fill-rule="nonzero" group-id="1,8" node-id="383" stroke="none" target-height="9.470001" target-width="3" target-x="57.954" target-y="180.544"/></g><g node-id="479"><path d="M 48.31 84.45 C 48.31 84.37 48.32 84.29 48.32 84.21 C 48.32 75.90 40.99 69.17 31.95 69.17 C 24.16 69.17 17.65 74.16 15.99 80.85 C 15.74 80.83 15.48 80.82 15.22 80.82 C 9.84 80.82 5.49 84.83 5.49 89.77 C 5.49 90.83 5.69 91.84 6.05 92.79 C 4.54 94.75 3.65 97.14 3.65 99.72 C 3.65 106.27 9.36 111.60 16.45 111.74 L 16.45 111.75 L 41.60 111.75 C 50.22 111.75 57.21 105.32 57.21 97.40 C 57.21 91.69 53.57 86.75 48.31 84.45 Z" fill="#ffffff" fill-rule="nonzero" group-id="1,9" node-id="387" stroke="none" target-height="42.579002" target-width="53.554" target-x="3.655" target-y="69.166"/><path d="M 41.60 113.25 L 16.45 113.25 C 16.39 113.25 16.33 113.24 16.28 113.23 C 8.48 113.01 2.15 106.97 2.15 99.72 C 2.15 97.16 2.92 94.69 4.38 92.53 C 4.12 91.64 3.98 90.71 3.98 89.77 C 3.98 84.11 8.84 79.49 14.87 79.32 C 17.16 72.40 24.01 67.67 31.95 67.67 C 41.54 67.67 49.39 74.70 49.80 83.49 C 55.24 86.25 58.71 91.61 58.71 97.40 C 58.71 106.14 51.03 113.25 41.60 113.25 Z M 16.58 110.25 L 41.60 110.25 C 49.38 110.25 55.71 104.48 55.71 97.40 C 55.71 92.50 52.57 87.95 47.71 85.82 C 47.16 85.58 46.81 85.04 46.81 84.45 L 46.81 84.27 C 46.82 76.74 40.15 70.67 31.95 70.67 C 25.06 70.67 18.96 75.10 17.45 81.21 C 17.27 81.92 16.61 82.41 15.89 82.34 C 15.67 82.33 15.45 82.32 15.22 82.32 C 10.68 82.32 6.98 85.66 6.98 89.77 C 6.98 90.61 7.14 91.44 7.45 92.24 C 7.64 92.73 7.56 93.28 7.24 93.70 C 5.88 95.47 5.16 97.56 5.16 99.72 C 5.16 105.39 10.23 110.11 16.48 110.24 C 16.51 110.24 16.55 110.24 16.58 110.25 Z" fill="#ccccde" fill-rule="nonzero" group-id="1,9" node-id="389" stroke="none" target-height="45.58" target-width="56.556" target-x="2.154" target-y="67.665"/></g><g node-id="480"><path d="M 245.89 144.00 C 245.89 143.94 245.89 143.90 245.89 143.84 C 245.89 138.14 240.87 133.53 234.66 133.53 C 229.33 133.53 224.87 136.95 223.73 141.54 C 223.55 141.52 223.38 141.52 223.20 141.52 C 219.51 141.52 216.52 144.26 216.52 147.65 C 216.52 148.38 216.66 149.07 216.91 149.72 C 215.88 151.06 215.27 152.70 215.27 154.48 C 215.27 158.97 219.18 162.62 224.04 162.71 L 224.04 162.72 L 241.28 162.72 C 247.19 162.72 251.98 158.31 251.98 152.88 C 251.99 148.96 249.49 145.58 245.89 144.00 Z" fill="#ffffff" fill-rule="nonzero" group-id="1,10" node-id="394" stroke="none" target-height="29.190994" target-width="36.716995" target-x="215.268" target-y="133.526"/><path d="M 241.28 164.22 L 224.04 164.22 C 223.99 164.22 223.95 164.22 223.91 164.21 C 218.31 164.05 213.77 159.70 213.77 154.48 C 213.77 152.70 214.28 150.98 215.25 149.47 C 215.10 148.87 215.02 148.27 215.02 147.65 C 215.02 143.62 218.38 140.31 222.62 140.03 C 224.35 135.26 229.13 132.03 234.66 132.03 C 241.40 132.03 246.92 136.90 247.36 143.05 C 251.11 145.06 253.48 148.82 253.48 152.88 C 253.48 159.13 248.01 164.22 241.28 164.22 Z M 224.13 161.22 L 241.28 161.22 C 246.36 161.22 250.48 157.48 250.48 152.88 C 250.48 149.71 248.44 146.76 245.28 145.37 C 244.74 145.13 244.39 144.60 244.39 144.00 C 244.39 143.98 244.39 143.88 244.39 143.87 C 244.39 138.98 240.03 135.03 234.66 135.03 C 230.16 135.03 226.17 137.91 225.19 141.90 C 225.01 142.61 224.34 143.08 223.60 143.03 C 223.47 143.02 223.33 143.01 223.20 143.01 C 220.34 143.01 218.02 145.09 218.02 147.65 C 218.02 148.17 218.12 148.68 218.31 149.17 C 218.50 149.66 218.42 150.22 218.10 150.63 C 217.23 151.77 216.77 153.10 216.77 154.48 C 216.77 158.11 220.04 161.13 224.07 161.21 C 224.09 161.22 224.11 161.22 224.13 161.22 Z" fill="#ccccde" fill-rule="nonzero" group-id="1,10" node-id="396" stroke="none" target-height="32.190994" target-width="39.71599" target-x="213.768" target-y="132.026"/></g></g><g node-id="472"><path d="M 244.03 249.53 C 235.44 249.53 227.66 252.54 221.96 257.42 C 214.49 248.98 202.87 243.53 189.76 243.53 C 174.28 243.53 160.87 251.14 153.98 262.31 C 133.34 215.12 162.24 199.38 162.24 199.38 C 131.26 229.42 113.78 201.35 112.66 199.48 C 113.79 201.39 141.35 216.54 120.58 262.97 C 113.81 251.44 100.18 243.53 84.40 243.53 C 71.29 243.53 59.67 248.99 52.20 257.42 C 46.49 252.54 38.71 249.53 30.12 249.53 C 12.71 249.53 -1.41 261.87 -1.55 277.14 L 275.71 277.14 C 275.56 261.87 261.44 249.53 244.03 249.53 Z" fill="#ffffff" fill-rule="nonzero" group-id="2" node-id="401" stroke="none" target-height="77.76877" target-width="277.258" target-x="-1.5515175" target-y="199.37598"/><path d="M -1.55 278.92 C -1.56 278.92 -1.56 278.92 -1.57 278.92 C -2.84 278.91 -3.86 278.11 -3.85 277.13 C -3.70 260.93 11.54 247.75 30.12 247.75 C 31.39 247.75 32.42 248.54 32.42 249.53 C 32.42 250.51 31.39 251.30 30.12 251.30 C 14.05 251.30 0.87 262.90 0.74 277.16 C 0.73 278.13 -0.29 278.92 -1.55 278.92 Z" fill="#ccccde" fill-rule="nonzero" group-id="2" node-id="403" stroke="none" target-height="31.17218" target-width="36.272446" target-x="-3.856135" target-y="247.74826"/><path d="M 120.58 264.75 C 119.69 264.75 118.87 264.35 118.49 263.71 C 111.83 252.36 98.77 245.31 84.39 245.31 C 72.51 245.31 61.46 250.09 54.09 258.42 C 53.38 259.23 51.95 259.44 50.90 258.89 C 49.86 258.33 49.59 257.23 50.31 256.42 C 58.55 247.10 70.97 241.76 84.39 241.76 C 98.89 241.76 112.16 248.05 120.10 258.43 C 128.22 238.37 128.04 222.09 119.60 209.84 C 114.13 205.94 111.10 201.09 110.59 200.23 C 110.58 200.23 110.58 200.22 110.58 200.21 C 110.05 199.32 110.56 198.27 111.71 197.86 C 112.81 197.47 114.11 197.82 114.68 198.64 C 114.82 198.78 115.22 199.11 115.58 199.41 C 118.59 201.92 121.15 204.65 123.25 207.59 C 125.98 209.44 129.33 210.95 133.23 211.32 C 139.56 211.93 146.37 209.52 153.56 204.18 C 157.16 200.05 160.51 198.15 160.91 197.93 C 161.85 197.42 163.12 197.52 163.91 198.16 C 164.69 198.80 164.74 199.80 164.03 200.49 C 161.80 202.65 159.59 204.56 157.39 206.24 C 155.68 208.23 153.88 210.80 152.39 214.04 C 148.61 222.23 146.07 236.34 154.52 257.83 C 162.52 247.82 175.62 241.76 189.76 241.76 C 191.03 241.76 192.05 242.55 192.05 243.53 C 192.05 244.52 191.03 245.31 189.76 245.31 C 175.73 245.31 162.81 252.12 156.04 263.08 C 155.64 263.73 154.78 264.13 153.84 264.09 C 152.91 264.05 152.10 263.57 151.80 262.88 C 141.00 238.17 143.44 221.85 148.50 211.74 C 143.11 214.29 137.82 215.33 132.68 214.85 C 130.57 214.65 128.60 214.20 126.79 213.58 C 133.05 226.78 131.72 243.51 122.75 263.56 C 122.44 264.24 121.62 264.72 120.69 264.75 C 120.65 264.75 120.62 264.75 120.58 264.75 Z" fill="#ccccde" fill-rule="nonzero" group-id="2" node-id="405" stroke="none" target-height="67.3354" target-width="142.46144" target-x="49.593143" target-y="197.41655"/><path d="M 275.71 278.92 C 274.45 278.92 273.42 278.13 273.41 277.16 C 273.28 262.90 260.10 251.30 244.03 251.30 C 236.41 251.30 229.17 253.90 223.65 258.61 C 222.80 259.34 221.35 259.39 220.41 258.74 C 219.48 258.08 219.41 256.95 220.26 256.23 C 226.66 250.76 235.10 247.75 244.03 247.75 C 262.61 247.75 277.85 260.93 278.00 277.13 C 278.01 278.11 276.99 278.92 275.72 278.92 C 275.72 278.92 275.71 278.92 275.71 278.92 Z" fill="#ccccde" fill-rule="nonzero" group-id="2" node-id="407" stroke="none" target-height="31.17337" target-width="58.60347" target-x="219.40569" target-y="247.75058"/><g node-id="481"><path d="M 74.23 148.17 C 74.23 148.17 50.35 162.50 47.31 176.24 C 44.27 189.97 49.09 244.75 72.33 220.54 C 82.47 209.97 91.94 195.15 95.59 195.07" fill="#ff9696" fill-rule="nonzero" group-id="2,11" node-id="411" stroke="none" target-height="96.58014" target-width="51.31933" target-x="44.267776" target-y="148.17122"/><path d="M 61.68 228.43 C 60.59 228.43 59.52 228.25 58.47 227.90 C 52.31 225.86 48.00 217.81 45.66 203.98 C 43.74 192.63 43.91 181.06 45.04 175.94 C 48.20 161.69 71.82 147.37 72.82 146.77 C 73.82 146.16 75.26 146.31 76.04 147.08 C 76.81 147.86 76.63 148.98 75.63 149.58 C 75.40 149.71 52.42 163.65 49.57 176.54 C 47.13 187.52 50.27 221.32 60.27 224.64 C 63.57 225.73 67.65 222.44 70.49 219.48 C 74.54 215.26 78.51 210.31 82.02 205.95 C 89.20 197.00 92.25 193.37 95.52 193.30 C 96.78 193.24 97.84 194.04 97.88 195.02 C 97.91 195.94 97.04 196.72 95.88 196.84 C 94.16 197.56 89.59 203.24 85.91 207.82 C 82.36 212.25 78.33 217.27 74.17 221.60 C 69.81 226.14 65.63 228.43 61.68 228.43 Z" fill="#6e6e96" fill-rule="nonzero" group-id="2,11" node-id="413" stroke="none" target-height="82.26222" target-width="54.169376" target-x="43.741856" target-y="146.16443"/></g><g node-id="482"><path d="M 196.48 156.87 C 205.92 161.96 216.06 168.60 218.84 174.86 C 225.25 189.25 219.39 219.59 213.25 230.15 C 209.07 237.34 195.83 212.38 174.50 198.90" fill="#ff9696" fill-rule="nonzero" group-id="2,12" node-id="418" stroke="none" target-height="80.47101" target-width="50.75055" target-x="174.49977" target-y="156.87027"/><path d="M 211.30 233.20 C 207.57 233.20 203.92 229.24 197.46 222.25 C 191.00 215.25 182.95 206.53 173.05 200.27 C 172.07 199.65 171.92 198.54 172.72 197.77 C 173.52 197.01 174.97 196.90 175.95 197.52 C 186.33 204.08 194.92 213.39 201.19 220.18 C 204.77 224.05 209.16 228.81 211.07 229.56 C 211.10 229.52 211.13 229.47 211.16 229.41 C 217.46 218.58 222.65 188.86 216.67 175.44 C 214.56 170.68 207.12 164.77 195.17 158.33 C 194.13 157.77 193.87 156.66 194.59 155.86 C 195.31 155.05 196.75 154.85 197.79 155.41 C 210.73 162.38 218.54 168.73 221.01 174.28 C 227.84 189.61 221.33 220.59 215.34 230.88 C 214.32 232.63 212.81 233.10 211.71 233.18 C 211.58 233.19 211.44 233.20 211.30 233.20 Z" fill="#6e6e96" fill-rule="nonzero" group-id="2,12" node-id="420" stroke="none" target-height="78.34926" target-width="55.915497" target-x="171.92064" target-y="154.85037"/></g><path d="M 198.57 150.81 C 202.91 133.54 208.77 113.29 207.35 90.43 C 204.11 38.34 157.33 12.41 139.99 4.55 C 139.99 4.55 132.57 1.37 125.02 5.90 C 8.74 75.63 99.74 198.62 99.74 198.62 C 99.74 198.62 112.24 212.83 135.44 212.32 C 163.39 211.70 171.19 200.32 171.19 200.32 C 171.19 200.32 191.20 180.18 198.57 150.81 Z" fill="#ff9696" fill-rule="nonzero" group-id="2" node-id="423" stroke="none" target-height="211.45984" target-width="200.03589" target-x="8.736309" target-y="1.3661768"/><path d="M 95.51 188.22 C 95.45 188.13 95.39 188.05 95.33 187.97 C 95.33 187.97 95.39 188.06 95.51 188.22 Z M 131.98 4.90 C 146.88 10.89 156.88 31.53 162.25 57.03 C 142.16 47.44 115.48 49.72 98.63 63.54 C 79.34 79.35 80.25 104.30 100.66 119.24 C 119.03 132.70 146.93 133.47 166.40 121.96 C 164.88 144.58 160.28 165.22 152.74 178.20 C 117.84 187.12 85.36 165.78 85.36 165.78 L 88.19 171.94 C 111.30 195.39 137.64 189.47 146.36 186.58 C 144.94 187.94 143.45 189.10 141.89 189.99 C 111.56 207.28 97.24 190.45 95.51 188.21 C 127.81 232.79 166.71 204.51 166.71 204.51 C 279.52 39.87 131.97 4.90 131.98 4.90 Z" fill="#6e6e96" fill-opacity="0.18" fill-rule="nonzero" group-id="2,13" node-id="427" stroke="none" target-height="227.88763" target-width="200.18419" target-x="79.33858" target-y="4.900048"/><path d="M 126.27 189.38 C 114.98 188.96 101.09 185.03 88.20 171.94 L 85.36 165.78 C 85.36 165.78 97.64 173.85 115.21 178.00 C 113.38 175.29 112.60 171.95 110.39 168.75 C 105.20 161.25 100.83 153.91 97.17 146.73 C 95.78 143.49 89.25 124.90 125.55 129.23 C 116.51 127.83 107.86 124.51 100.66 119.24 C 80.25 104.30 79.33 79.35 98.63 63.54 C 101.58 61.12 104.84 59.06 108.31 57.35 C 103.08 59.54 90.67 62.94 101.34 40.02 C 109.30 28.53 119.75 17.56 132.54 7.08 C 132.54 7.08 51.37 45.04 67.67 118.18 C 87.84 208.76 110.03 198.79 131.22 194.99 C 131.22 194.98 134.47 195.32 126.27 189.38 Z" fill="#ffffff" fill-opacity="0.56" fill-rule="nonzero" group-id="2,14" node-id="432" stroke="none" target-height="201.68515" target-width="83.09958" target-x="51.373173" target-y="7.075157"/><path d="M 179.31 197.41 L 199.45 162.95 C 240.39 180.38 210.20 226.53 210.20 226.53 C 210.20 226.53 213.87 190.33 203.92 183.04 C 193.95 175.74 189.99 205.90 189.99 205.90 L 179.31 197.41 Z" fill="#6e6e96" fill-opacity="0.2" fill-rule="nonzero" group-id="2,15" node-id="437" stroke="none" target-height="63.588287" target-width="61.075867" target-x="179.31067" target-y="162.94524"/><path d="M 65.69 226.76 C 65.46 220.50 95.63 194.48 95.63 194.48 L 71.71 154.48 L 76.99 193.01 C 76.99 193.01 75.34 203.38 65.79 207.35 C 56.24 211.31 51.81 176.83 51.81 176.83 C 41.16 215.76 65.92 233.01 65.69 226.76 Z" fill="#6e6e96" fill-opacity="0.2" fill-rule="nonzero" group-id="2,16" node-id="442" stroke="none" target-height="78.53169" target-width="54.467533" target-x="41.162395" target-y="154.48196"/><path d="M 172.02 90.41 C 172.02 106.21 155.48 119.03 135.08 119.03 C 114.68 119.03 98.14 106.21 98.14 90.41 C 98.14 74.60 114.68 61.79 135.08 61.79 C 155.48 61.79 172.02 74.60 172.02 90.41 Z" fill="#badbff" fill-rule="nonzero" group-id="2,17" node-id="447" stroke="none" target-height="57.243202" target-width="73.88123" target-x="98.14089" target-y="61.785538"/><path d="M 135.08 120.81 C 113.45 120.81 95.85 107.17 95.85 90.41 C 95.85 73.65 113.45 60.01 135.08 60.01 C 156.72 60.01 174.32 73.65 174.32 90.41 C 174.32 107.17 156.72 120.81 135.08 120.81 Z M 135.08 63.56 C 115.98 63.56 100.43 75.61 100.43 90.41 C 100.43 105.21 115.98 117.25 135.08 117.25 C 154.19 117.25 169.73 105.21 169.73 90.41 C 169.73 75.61 154.19 63.56 135.08 63.56 Z" fill="#6e6e96" fill-rule="nonzero" group-id="2,17" node-id="449" stroke="none" target-height="60.797207" target-width="78.46823" target-x="95.8474" target-y="60.008526"/><path d="M 162.85 111.91 C 148.47 123.69 124.50 124.21 109.29 113.07 C 99.34 105.79 95.62 95.32 98.25 85.65 C 97.05 93.23 100.34 101.13 108.06 106.78 C 120.95 116.21 141.26 115.77 153.44 105.79 C 165.62 95.80 165.04 80.06 152.16 70.63 C 142.61 63.63 128.98 62.07 117.60 65.80 C 131.56 60.08 149.23 61.54 161.34 70.41 C 176.54 81.55 177.22 100.12 162.85 111.91 Z" fill="#6e6e96" fill-opacity="0.2" fill-rule="nonzero" group-id="2,18" node-id="454" stroke="none" target-height="64.13205" target-width="81.5981" target-x="95.618774" target-y="60.076084"/><path d="M 133.70 74.14 C 128.17 71.09 119.13 73.58 113.52 79.70 C 107.92 85.82 107.87 93.25 113.41 96.30 C 118.96 99.34 125.33 94.91 130.94 88.79 C 136.54 82.67 139.24 77.19 133.70 74.14 Z" fill="#ffffff" fill-opacity="0.42" fill-rule="nonzero" group-id="2,19" node-id="459" stroke="none" target-height="28.244873" target-width="31.36895" target-x="107.87379" target-y="71.09473"/><path d="M 142.92 100.19 L 141.12 99.38 L 139.91 98.06 L 139.40 96.44 L 139.70 94.63 L 140.80 93.01 L 142.41 91.92 L 144.38 91.38 L 146.47 91.51 L 148.27 92.33 L 149.48 93.65 L 149.99 95.26 L 149.69 97.08 L 148.59 98.69 L 146.98 99.79 L 145.01 100.33 L 142.92 100.19 Z" fill="#ffffff" fill-opacity="0.25" fill-rule="nonzero" group-id="2,20" node-id="464" stroke="none" target-height="8.952156" target-width="10.582535" target-x="139.40356" target-y="91.376274"/><path d="M 134.28 215.50 C 134.28 215.50 134.28 215.50 134.28 215.50 C 110.92 215.50 98.42 201.60 97.90 201.01 C 97.87 200.97 97.84 200.94 97.81 200.90 C 97.58 200.58 74.75 169.41 66.56 130.09 C 55.67 77.77 75.42 34.82 123.67 5.89 C 126.77 4.03 130.21 3.08 133.90 3.08 C 137.99 3.08 140.84 4.26 141.16 4.40 C 160.72 13.26 206.45 39.47 209.70 91.74 C 211.00 112.81 206.25 131.46 202.05 147.92 C 201.65 149.48 201.26 151.03 200.87 152.55 C 193.67 181.22 174.91 200.91 173.16 202.70 C 172.08 204.15 163.13 214.88 135.55 215.49 C 135.13 215.50 134.70 215.50 134.28 215.50 Z M 101.73 199.06 C 102.55 199.94 114.06 211.95 134.28 211.95 C 134.28 211.95 134.28 211.95 134.28 211.95 C 134.66 211.95 135.04 211.94 135.42 211.94 C 161.74 211.36 169.15 200.99 169.22 200.88 C 169.28 200.80 169.35 200.71 169.43 200.63 C 169.62 200.44 189.20 180.45 196.37 151.87 C 196.76 150.34 197.15 148.80 197.55 147.23 C 201.70 130.97 206.39 112.55 205.12 91.91 C 201.97 41.38 157.75 16.03 138.89 7.48 C 138.89 7.48 138.89 7.48 138.89 7.48 C 138.88 7.48 136.79 6.64 133.90 6.64 C 131.25 6.64 128.76 7.33 126.48 8.70 C 100.35 24.37 82.78 44.09 74.27 67.31 C 67.45 85.94 66.38 106.87 71.09 129.52 C 78.96 167.33 100.54 197.42 101.73 199.06 Z" fill="#6e6e96" fill-rule="nonzero" group-id="2" node-id="467" stroke="none" target-height="212.41824" target-width="155.33408" target-x="55.67053" target-y="3.0839639"/><path d="M 133.11 193.27 C 112.88 193.27 99.98 187.37 92.52 182.13 C 83.54 175.83 80.33 169.21 80.20 168.93 C 79.76 168.01 80.37 166.99 81.56 166.65 C 82.75 166.31 84.07 166.78 84.51 167.71 C 84.98 168.70 96.73 192.08 139.31 189.53 C 155.75 188.55 170.43 184.11 186.93 175.13 C 187.97 174.56 189.40 174.76 190.13 175.56 C 190.86 176.36 190.61 177.47 189.57 178.04 C 172.36 187.40 156.97 192.04 139.67 193.07 C 137.40 193.21 135.21 193.27 133.11 193.27 Z" fill="#6e6e96" fill-rule="nonzero" group-id="2" node-id="469" stroke="none" target-height="26.960693" target-width="111.09248" target-x="79.76376" target-y="166.31212"/></g></svg>